# xmcd CD database file
#
# Track frame offsets:
#	182
#	8392
#	40052
#	66517
#	90725
#	113115
#	132872
#	151095
#	176800
#	190462
#	203897
#
# Disc length: 3054 seconds
#
# Revision: 0
# Processed by: cddbd v1.5.1PL0 Copyright (c) Steve Scherf et al.
# Submitted via: CDex 1.50beta8
#
DISCID=8e0bec0b
DTITLE=Aanderud Svec Razim - Trio '02
DYEAR=2002
DGENRE=Jazz
TTITLE0=Prologue
TTITLE1=Dark Places
TTITLE2=New Morning
TTITLE3=Just Like Home
TTITLE4=Frozen Drops
TTITLE5=Song For Malika
TTITLE6=Sambamba
TTITLE7=Three For Kenny
TTITLE8=Buenos Dias Con Samba
TTITLE9=Epilogue
TTITLE10=(Untitle)
EXTD=YEAR: 2002
EXTT0=
EXTT1=
EXTT2=
EXTT3=
EXTT4=
EXTT5=
EXTT6=
EXTT7=
EXTT8=
EXTT9=
EXTT10=
PLAYORDER=
